<?xml version="1.0" encoding="UTF-8" standalone="no"?>
<!DOCTYPE svg PUBLIC "-//W3C//DTD SVG 1.1//EN" "http://www.w3.org/Graphics/SVG/1.1/DTD/svg11.dtd">
<!-- Created with Vectornator (http://vectornator.io/) -->
<svg height="100%" stroke-miterlimit="10" style="fill-rule:nonzero;clip-rule:evenodd;stroke-linecap:round;stroke-linejoin:round;" version="1.1" viewBox="0 0 335 90" width="100%" xml:space="preserve" xmlns="http://www.w3.org/2000/svg" xmlns:xlink="http://www.w3.org/1999/xlink">
<defs/>
<clipPath id="ArtboardFrame">
<rect height="90" width="335" x="0" y="0"/>
</clipPath>
<g clip-path="url(#ArtboardFrame)" id="Untitled">
<g opacity="1">
<clipPath id="ClipPath">
<path d="M108.783 0L335 0L335 88.9203L108.783 88.9203L108.783 0Z"/>
</clipPath>
<g clip-path="url(#ClipPath)">
<path d="M108.879 0.0551914L108.812 0.0575908C110.972 15.7981 115.063 28.3179 115.403 41.8899C115.819 58.4615 112.037 75.553 109.741 88.8915C117.146 83.6771 126.3 78.4699 137.207 73.2676C148.758 68.1132 158.486 65.0513 166.388 64.0794C175.697 62.1549 186.207 61.9006 197.915 63.3187C200.185 63.2779 212.898 66.6302 236.054 73.3803C241.554 74.4218 246.454 74.8249 250.759 74.5921C254.831 74.5513 260.871 73.2939 268.874 70.8175C293.297 59.6377 306.293 54.0826 307.863 54.1498C312.314 52.9236 316.576 52.0693 320.645 51.5894C323.806 51.0207 328.6 51.0039 335.024 51.5438C334.69 49.5881 332.248 46.4278 327.696 42.0629C324.799 39.5865 321.147 37.1485 316.737 34.7513C312.484 33.3475 309.262 32.618 307.068 32.5652L276.656 33.2107C271.283 32.9684 266.93 32.4188 263.595 31.5622C259.258 30.3744 255.714 29.045 252.964 27.5764C238.715 18.7242 229.719 13.3275 225.976 11.3886C219.766 8.33867 215.033 6.51736 211.784 5.92946C208.087 5.0392 202.232 4.82803 194.219 5.29596C193.123 5.21917 181.904 6.88451 160.569 10.2872C156.744 10.7959 151.343 10.9183 144.367 10.6519C139.525 10.4815 131.882 8.92898 121.441 5.99425L110.168 0.422333C109.606 0.179972 109.177 0.0599903 108.879 0.0551914" fill="#f1c060" fill-rule="nonzero" opacity="1" stroke="none"/>
</g>
</g>
<g opacity="1">
<path d="M130.231 54.4042C135.088 52.9597 137.982 48.4676 138.152 43.234C138.238 40.5656 138.37 38.5164 138.224 35.776C138.159 34.8449 136.64 34.485 136.1 35.632C135.527 36.8966 134.488 37.5565 133.355 37.8949C131.316 38.502 129.744 37.4869 129.187 35.6104C128.57 33.5371 129.645 30.996 131.913 30.3217C133.662 29.8009 134.428 31.1951 134.241 32.6949C134.145 33.3236 135.006 33.4916 135.654 33.2972C138.018 32.5941 139.889 30.2401 138.994 27.2286C138.195 24.541 135.877 23.1492 132.412 24.181C126.099 26.0599 122.317 33.8467 124.34 40.6472C125.564 44.7602 128.138 46.4255 130.696 45.6648C132.187 45.2209 133.204 44.1435 133.756 42.6749C133.941 42.231 134.423 42.5477 134.353 43.0252C134.001 45.2809 132.739 46.9606 130.375 47.6637C127.524 48.5108 124.757 47.5005 124.016 45.0073C123.949 44.7818 123.673 44.6858 123.414 44.765C121.244 45.4105 120.445 47.9373 121.196 50.4641C122.199 53.8307 125.794 55.724 130.231 54.4042Z" fill="#30a494" fill-rule="nonzero" opacity="1" stroke="none"/>
<path d="M153.021 34.6868C152.661 35.853 152.249 36.7144 151.279 37.0048C149.82 37.4367 149.069 36.9208 148.798 36.0138C148.2 34.0077 149.189 32.232 148.64 30.3867C148.119 28.6373 144.395 27.4903 141.35 28.395C139.603 28.9157 138.94 30.8402 139.336 32.1672C139.682 33.3334 140.229 33.6285 140.944 33.6621C140.836 35.3155 140.584 37.4343 140.229 38.4926C139.991 39.234 141.757 39.8364 141.928 38.8693C142.129 37.6455 142.542 35.1259 142.739 33.6573C144.179 33.7581 144.841 34.442 144.937 34.766C145.4 36.3209 144.04 40.0379 144.935 43.0494C145.427 44.7028 146.852 46.1809 149.508 45.3915C153.88 44.0909 154.214 37.1536 154.72 35.0635C154.893 34.3436 153.307 33.7557 153.021 34.6868Z" fill="#30a494" fill-rule="nonzero" opacity="1" stroke="none"/>
<path d="M161.003 41.9704C164.759 40.8546 167.365 37.0488 168.644 30.9226C168.816 30.2003 167.233 29.6148 166.945 30.5459C166.153 33.2142 163.866 35.1267 161.666 35.7818C159.82 36.3313 158.124 36.2018 157.785 35.0667C157.661 34.6468 157.956 34.4524 158.222 34.5148C159.091 34.714 159.995 34.5508 160.902 34.2821C164.075 33.339 165.325 30.0755 164.622 27.7119C163.986 25.5739 162.081 24.0261 159.069 24.9236C149.775 27.6879 151.904 44.6772 161.003 41.9704ZM159.338 32.1032C158.301 32.4128 157.632 31.9424 157.421 31.2298C157.159 30.3539 157.658 29.1853 158.92 28.8085C159.923 28.511 160.593 28.9813 160.804 29.694C161.046 30.5027 160.6 31.7289 159.338 32.1032Z" fill="#30a494" fill-rule="nonzero" opacity="1" stroke="none"/>
<path d="M174.927 37.8283C178.683 36.7125 181.289 32.9067 182.568 26.7805C182.741 26.0582 181.157 25.4727 180.869 26.4037C180.077 29.0721 177.79 30.9846 175.59 31.6397C173.744 32.1892 172.048 32.0596 171.71 30.9246C171.585 30.5047 171.88 30.3103 172.146 30.3727C173.015 30.5719 173.92 30.4087 174.827 30.14C177.999 29.1969 179.249 25.9334 178.546 23.5698C177.91 21.4317 176.005 19.884 172.993 20.7814C163.7 23.5458 165.828 40.5351 174.927 37.8283ZM173.262 27.9611C172.225 28.2707 171.556 27.8003 171.345 27.0876C171.083 26.2118 171.582 25.0432 172.845 24.6664C173.848 24.3689 174.517 24.8392 174.728 25.5519C174.971 26.3606 174.524 27.5868 173.262 27.9611Z" fill="#30a494" fill-rule="nonzero" opacity="1" stroke="none"/>
<path d="M184.803 34.8908C187.037 34.2261 186.93 32.3208 186.438 30.6675L186.006 29.2109C185.147 26.329 185.967 23.1591 187.846 22.6C188.59 22.3792 189.192 22.624 189.413 23.3679C189.807 24.6973 189.094 27.2696 189.826 29.7317C190.366 31.5458 191.539 32.8872 193.579 32.28C197.951 30.9795 198.284 24.0422 198.791 21.9545C198.964 21.2322 197.38 20.6467 197.092 21.5778C196.734 22.7416 196.322 23.6054 195.35 23.8934C194.282 24.2125 193.641 23.8382 193.312 22.7368C192.833 21.117 193.56 19.7732 193.049 18.0575C192.569 16.4378 191.225 15.3579 189.25 15.9458C187.825 16.3682 186.73 17.4336 185.878 18.955C185.151 20.3012 184.388 20.1044 184.012 18.8422C183.82 18.1943 183.452 17.6688 182.579 17.9279C181.379 18.2855 180.81 22.2976 180.868 26.4034C180.914 29.2805 181.283 31.7089 181.737 33.2303C182.142 34.5909 183.282 35.3444 184.803 34.8908Z" fill="#30a494" fill-rule="nonzero" opacity="1" stroke="none"/>
</g>
<g opacity="1">
<path d="M196.424 59.3234C199.556 58.2436 201.488 55.3689 202.102 51.6231C203.122 54.0923 205.207 55.2105 207.729 54.3418C212.591 52.6669 214.491 44.465 212.262 37.9908C210.481 32.8269 206.308 29.1986 198.56 31.867C191.601 34.2666 188.227 40.3569 190.017 45.5544C190.812 47.8629 192.851 49.5402 195.342 48.6811C198.291 47.6661 198.855 43.1884 197.963 43.3588C197.295 43.5891 196.578 43.09 196.273 42.207C195.196 39.0779 197.562 36.767 200.417 35.7832C204.612 34.3386 206.582 36.2103 207.472 38.7923C208.708 42.3773 208.207 47.1406 205.562 48.05C204.528 48.4076 203.894 47.9444 203.621 47.155C202.995 45.3313 203.786 40.3329 203.532 38.2116C203.4 37.1366 202.906 36.5919 201.629 37.031C200.717 37.3453 200.187 37.9716 200.158 39.1714C200.091 40.6544 200.048 42.4037 200.002 43.9491C199.829 48.0884 197.963 50.464 196.079 51.1143C194.409 51.6903 192.787 51.2271 192.326 49.8905C192.254 49.677 191.988 49.6002 191.745 49.6842C189.314 50.5216 188.551 53.5356 189.41 56.0288C190.279 58.5508 192.688 60.6096 196.424 59.3234Z" fill="#f6f2e9" fill-rule="nonzero" opacity="1" stroke="none"/>
<path d="M228.972 37.3677C228.61 38.6827 227.935 39.3906 227.052 39.6954L226.841 39.7674C226.798 38.6611 226.584 37.5453 226.217 36.4823C224.9 32.6525 222.474 31.9254 219.981 32.7821C215.15 34.4474 213.53 41.1927 215.1 45.7496C216.189 48.9099 218.834 50.1745 221.569 49.2339C223.849 48.4468 225.545 46.3663 226.352 43.7771L226.716 43.6523C229.665 42.6373 230.359 39.8154 230.601 37.6581C230.695 36.8422 229.159 36.727 228.972 37.3677ZM221.135 42.347C219.978 42.7429 219.292 42.131 218.99 41.2503C218.529 39.9113 219.018 38.078 220.506 37.5645C221.692 37.1566 222.428 37.7181 222.733 38.5987C223.172 39.8753 222.654 41.8214 221.135 42.347Z" fill="#f6f2e9" fill-rule="nonzero" opacity="1" stroke="none"/>
<path d="M234.208 44.8778C238.585 43.3709 238.914 36.7311 239.228 34.6842C239.333 34.0027 237.846 33.53 237.599 34.3963C237.315 35.5481 236.543 36.4599 235.326 36.8775C233.534 37.4966 232.132 36.4839 232.036 34.1371C231.914 31.9007 232.075 31.7783 234.901 30.804C236.116 30.3865 235.518 27.4638 234.697 27.7469L233.116 28.2916C232.54 28.4908 232.454 27.9413 232.574 26.8135C232.857 24.5746 232.137 23.7684 231.012 24.1547C230.253 24.4163 229.677 24.9202 229.555 26.9359C229.507 28.1741 228.953 29.7266 227.191 30.3337C226.493 30.5737 227.328 32.9037 229.092 32.2966C229.053 34.6554 229.003 36.6783 229.01 38.3748C228.982 42.735 230.805 46.0512 234.208 44.8778Z" fill="#f6f2e9" fill-rule="nonzero" opacity="1" stroke="none"/>
</g>
<g opacity="1">
<path d="M242.266 69.6657C246.837 68.6818 249.592 63.7722 250.434 57.9051C250.492 57.3892 250.628 57.0941 251.108 56.9909C252.675 56.6525 253.201 59.7169 253.753 61.5046C254.604 64.3649 256.265 65.2456 258.055 64.8592C261.412 64.137 263.663 59.3689 264.46 55.1504C264.577 54.4545 263.195 53.7826 262.85 54.6609C262.262 56.1246 261.647 57.1613 260.21 57.4708C258.962 57.7396 258.281 57.2165 257.616 56.4582C256.683 55.3879 256.104 55.6447 256.013 55.2296C255.965 55.0064 256.155 54.7976 257.023 54.4785C260.078 53.2835 261.417 50.1856 260.651 46.6365C259.723 42.322 255.871 40.4431 248.869 41.9501C240.207 43.817 235.945 50.1208 236.924 54.6609C237.428 56.9933 239.256 58.8074 241.877 58.2435C244.977 57.574 246.047 54.4665 245.169 53.1851C244.466 53.3363 243.818 52.806 243.631 51.9445C243.189 49.8976 244.999 47.2676 249.217 46.3582C252.478 45.6551 255.082 46.099 255.641 48.6882C256.131 50.9559 254.712 53.0699 252.73 53.4946C251.962 53.6602 251.43 53.6746 251.329 52.8947C251.259 52.1077 251.353 50.9822 251.557 49.3001C251.651 48.1747 251.123 47.5868 249.779 47.8771C248.821 48.0835 248.207 48.6498 248.032 49.8592C247.785 51.3494 247.528 53.1107 247.295 54.6657C246.304 59.2297 244.574 60.9743 242.815 61.3534C241.313 61.6749 239.924 60.9719 239.621 59.5657C239.571 59.3425 239.314 59.2297 239.057 59.2849C236.502 59.8368 235.364 62.7908 235.928 65.4112C236.502 68.0651 238.556 70.4648 242.266 69.6657Z" fill="#cb4a00" fill-rule="nonzero" opacity="1" stroke="none"/>
<path d="M270.007 62.2825C273.717 61.4835 276.513 58.004 278.202 52.1873C278.423 51.5058 276.937 50.822 276.592 51.7002C275.63 54.215 273.28 55.8923 271.106 56.3603C269.285 56.7514 267.658 56.5018 267.418 55.3812C267.327 54.9661 267.627 54.8005 267.879 54.8821C268.702 55.1389 269.587 55.0477 270.482 54.8557C273.614 54.1814 275.063 51.1243 274.562 48.7919C274.106 46.6826 272.383 45.0461 269.41 45.6868C260.236 47.6641 261.025 64.219 270.007 62.2825ZM269.134 52.6361C268.112 52.8568 267.5 52.3529 267.348 51.6498C267.164 50.786 267.73 49.6941 268.978 49.4254C269.969 49.2118 270.578 49.7157 270.73 50.4188C270.902 51.2203 270.382 52.3673 269.134 52.6361Z" fill="#cb4a00" fill-rule="nonzero" opacity="1" stroke="none"/>
<path d="M281.484 59.8104C283.433 59.3905 284.839 56.914 285.592 54.0417L285.719 54.0129C285.94 56.7437 287.428 58.529 289.475 58.0899C293.024 57.3244 293.708 51.9588 294.632 48.6474C294.821 47.9707 293.336 47.2892 293.021 48.1578C292.604 49.3193 291.934 50.0991 290.847 50.3343C289.441 50.6366 288.815 49.4344 289.398 46.8668L291.02 36.8484C291.459 34.8472 290.756 33.7625 289.638 34.0025C288.678 34.2089 287.613 35.0079 287.032 38.209C286.367 41.7989 286.744 43.5578 286.233 43.6682C285.403 43.8457 285.199 42.2836 282.643 42.8355C277.143 44.0209 275.843 51.3253 276.86 56.0574C277.412 58.613 278.957 60.3551 281.484 59.8104ZM282.967 52.5659C281.75 52.8275 281.131 52.1268 280.932 51.1982C280.63 49.792 281.347 47.9995 282.912 47.6611C284.16 47.3924 284.836 48.0499 285.036 48.9761C285.326 50.3199 284.565 52.2228 282.967 52.5659Z" fill="#cb4a00" fill-rule="nonzero" opacity="1" stroke="none"/>
</g>
<path d="M108.783 0L108.783 88.9203" fill="none" opacity="1" stroke="#8f6e06" stroke-linecap="butt" stroke-linejoin="round" stroke-width="2"/>
<path d="M108.783 0.900233C108.783 0.900233 98.959 10.3604 87.0159 18.9617C75.0727 27.563 54.658 37.1444 54.658 37.1444" fill="none" opacity="1" stroke="#8f6e06" stroke-linecap="butt" stroke-linejoin="round" stroke-width="1"/>
<path d="M54.658 37.1444C54.658 37.1444 72.9537 47.3961 84.8969 59.0427C96.84 70.6893 108.783 87.7164 108.783 87.7164" fill="none" opacity="1" stroke="#8f6e06" stroke-linecap="butt" stroke-linejoin="round" stroke-width="1"/>
<g opacity="1">
<path d="M29.2171 44.9555C29.8787 44.6777 30.5916 44.5396 31.3094 44.5492C33.1657 44.5492 34.6719 45.3858 34.6719 46.4199C34.6719 47.4525 33.1657 48.2891 31.3094 48.2891C30.5916 48.2987 29.8803 48.1606 29.2171 47.8828C28.9056 47.7447 28.7032 47.4332 28.7032 47.0895L28.7032 45.7487C28.7032 45.4051 28.9056 45.0936 29.2171 44.9555Z" fill="#c5c6c8" fill-rule="nonzero" opacity="1" stroke="none"/>
<path d="M25.1785 30.6159C25.6587 30.4136 26.1741 30.314 26.6944 30.3204C28.04 30.3204 29.1336 30.9274 29.1336 31.6757C29.1336 32.424 28.04 33.031 26.6944 33.031C26.1741 33.039 25.6587 32.9378 25.1785 32.7371C24.9521 32.636 24.806 32.4111 24.806 32.1623L24.806 31.1908C24.806 30.9419 24.9505 30.7154 25.1785 30.6159Z" fill="#c5c6c8" fill-rule="nonzero" opacity="1" stroke="none"/>
<path d="M31.0396 27.1587C31.1279 27.0768 31.2436 27.0318 31.3624 27.0318L34.5161 27.0318C34.7795 27.0318 34.9947 27.2454 34.9947 27.5103C34.9947 27.5713 34.9834 27.6308 34.9609 27.687L31.5679 36.3196L21.0517 36.3196L31.0396 27.1587Z" fill="#57878e" fill-rule="nonzero" opacity="1" stroke="none"/>
<g opacity="1">
<clipPath id="ClipPath_2">
<path d="M1.52868 34.7138L58.7939 34.7138L58.7939 43.7576L1.52868 43.7576L1.52868 34.7138Z"/>
</clipPath>
<g clip-path="url(#ClipPath_2)">
<path d="M5.8161 43.5504L35.5615 43.5504L51.4089 40.1012L58.7232 36.8286L58.7232 34.8824L9.40019 35.3899C7.9293 35.4011 6.48571 35.8025 5.21875 36.5524C4.66476 36.8848 4.15573 37.2847 3.70129 37.7439C3.29664 38.147 2.9514 38.6062 2.67681 39.1072C2.37171 39.6693 1.56561 40.2971 1.55116 40.986C1.54956 40.986 2.07304 43.7126 5.8161 43.5504Z" fill="#e6e6e6" fill-rule="nonzero" opacity="1" stroke="none"/>
</g>
</g>
<g opacity="1">
<clipPath id="ClipPath_3">
<path d="M16.4528 40.0579L52.6277 40.0579L52.6277 51.8956L16.4528 51.8956L16.4528 40.0579Z"/>
</clipPath>
<g clip-path="url(#ClipPath_3)">
<path d="M34.4728 40.7307L52.3402 50.9579C52.5763 51.112 52.6437 51.4284 52.4912 51.666C52.3965 51.8121 52.2343 51.9005 52.0625 51.9005L48.8348 51.9005C48.215 51.8988 47.6 51.772 47.0299 51.5247L16.7675 40.3389L34.4728 40.7307Z" fill="#57878e" fill-rule="nonzero" opacity="1" stroke="none"/>
</g>
</g>
<g opacity="1">
<clipPath id="ClipPath_4">
<path d="M50.9834 25.3811L61.6714 25.3811L61.6714 35.1249L50.9834 35.1249L50.9834 25.3811Z"/>
</clipPath>
<g clip-path="url(#ClipPath_4)">
<path d="M57.832 25.6444C57.9524 25.4774 58.1435 25.3778 58.3491 25.3778L60.9183 25.3778C61.2684 25.3778 61.5526 25.6637 61.5526 26.0137C61.5526 26.0812 61.5413 26.147 61.5205 26.2096L58.7232 34.8824L51.1937 34.9595L57.832 25.6444Z" fill="#57878e" fill-rule="nonzero" opacity="1" stroke="none"/>
</g>
</g>
<g opacity="1">
<clipPath id="ClipPath_5">
<path d="M53.0388 35.9471L63.1905 35.9471L63.1905 39.2357L53.0388 39.2357L53.0388 35.9471Z"/>
</clipPath>
<g clip-path="url(#ClipPath_5)">
<path d="M57.7084 36.3212L63.062 38.9242C63.1407 38.9611 63.1744 39.0542 63.1375 39.1329C63.1102 39.1891 63.054 39.2245 62.9914 39.2228L60.4912 39.2228C60.4719 39.2228 60.4526 39.218 60.435 39.2116L53.0757 36.3244L57.7084 36.3212Z" fill="#57878e" fill-rule="nonzero" opacity="1" stroke="none"/>
</g>
</g>
<path d="M3.69969 37.7439C4.15412 37.2847 4.66476 36.8848 5.21715 36.5524C6.1485 37.0005 6.94496 37.6861 7.52946 38.5404C7.63223 38.7218 7.56961 38.9531 7.38816 39.0558C7.33195 39.0896 7.26772 39.1056 7.20349 39.1072L2.6752 39.1072C2.94979 38.6046 3.29503 38.147 3.69969 37.7439Z" fill="#57878e" fill-rule="nonzero" opacity="1" stroke="none"/>
<path d="M13.4596 42.0843L10.6639 42.0843L10.6639 36.9523L13.4596 36.9523L13.4596 42.0843Z" fill="#c5c6c8" fill-rule="nonzero" opacity="1" stroke="none"/>
<path d="M15.8506 37.5801C16.191 37.5801 16.4672 37.8563 16.4672 38.1984L16.4672 38.7508C16.456 39.0928 16.1701 39.3609 15.8297 39.3497C15.507 39.3385 15.2452 39.0767 15.2356 38.7508L15.2356 38.1984C15.2356 37.8563 15.5102 37.5801 15.8506 37.5801Z" fill="#3a556a" fill-rule="nonzero" opacity="1" stroke="none"/>
<path d="M18.6302 37.5801C18.9706 37.5801 19.2468 37.8563 19.2468 38.1984L19.2468 38.7508C19.2356 39.0928 18.9497 39.3609 18.6093 39.3497C18.285 39.3385 18.0248 39.0767 18.0136 38.7508L18.0136 38.1984C18.0136 37.8563 18.2898 37.5801 18.6302 37.5801Z" fill="#3a556a" fill-rule="nonzero" opacity="1" stroke="none"/>
<path d="M21.4114 37.5801C21.7502 37.5801 22.0264 37.8563 22.0264 38.1984L22.0264 38.7508C22.0152 39.0928 21.7293 39.3609 21.3889 39.3497C21.0646 39.3385 20.8044 39.0767 20.7932 38.7508L20.7932 38.1984C20.7932 37.8563 21.0694 37.5801 21.4114 37.5801Z" fill="#3a556a" fill-rule="nonzero" opacity="1" stroke="none"/>
<path d="M24.1894 37.5801C24.5298 37.5801 24.806 37.8563 24.806 38.1984L24.806 38.7508C24.7948 39.0928 24.5089 39.3609 24.1685 39.3497C23.8441 39.3385 23.584 39.0767 23.5728 38.7508L23.5728 38.1984C23.5728 37.8563 23.849 37.5801 24.1894 37.5801Z" fill="#3a556a" fill-rule="nonzero" opacity="1" stroke="none"/>
<path d="M26.969 37.5801C27.3094 37.5801 27.5856 37.8563 27.5856 38.1984L27.5856 38.7508C27.5856 39.0928 27.3094 39.3706 26.969 39.3706C26.6302 39.3706 26.3524 39.0928 26.3524 38.7508L26.3524 38.1984C26.3524 37.8579 26.6286 37.5801 26.969 37.5801Z" fill="#3a556a" fill-rule="nonzero" opacity="1" stroke="none"/>
<path d="M29.7486 37.5801C30.089 37.5801 30.3652 37.8563 30.3652 38.1984L30.3652 38.7508C30.3652 39.0928 30.089 39.3706 29.7486 39.3706C29.4082 39.3706 29.1336 39.0928 29.1336 38.7508L29.1336 38.1984C29.132 37.8579 29.4082 37.5801 29.7486 37.5801Z" fill="#3a556a" fill-rule="nonzero" opacity="1" stroke="none"/>
<path d="M32.5282 37.5801C32.8686 37.5801 33.1448 37.8563 33.1448 38.1984L33.1448 38.7508C33.1448 39.0928 32.867 39.369 32.5282 39.369C32.1878 39.369 31.9132 39.0928 31.9116 38.7508L31.9116 38.1984C31.9116 37.8563 32.1878 37.5801 32.5282 37.5801Z" fill="#3a556a" fill-rule="nonzero" opacity="1" stroke="none"/>
<path d="M35.3078 37.5801C35.6482 37.5801 35.9244 37.8563 35.9244 38.1984L35.9244 38.7508C35.9228 39.0928 35.6466 39.369 35.3078 39.369C34.9674 39.369 34.6912 39.0928 34.6912 38.7508L34.6912 38.1984C34.6912 37.8563 34.9674 37.5801 35.3078 37.5801Z" fill="#3a556a" fill-rule="nonzero" opacity="1" stroke="none"/>
<path d="M38.0874 37.5801C38.4278 37.5801 38.7024 37.8563 38.7024 38.1984L38.7024 38.7508C38.7024 39.0928 38.4262 39.369 38.0858 39.369C37.747 39.369 37.4724 39.0928 37.4708 38.7508L37.4708 38.1984C37.4708 37.8563 37.747 37.5801 38.0874 37.5801Z" fill="#3a556a" fill-rule="nonzero" opacity="1" stroke="none"/>
<path d="M40.867 37.5801C41.2074 37.5801 41.4836 37.8563 41.4836 38.1968L41.4836 38.7508C41.4836 39.0928 41.2058 39.369 40.867 39.369C40.5266 39.369 40.252 39.0928 40.252 38.7508L40.252 38.1984C40.252 37.8563 40.5266 37.5801 40.867 37.5801Z" fill="#3a556a" fill-rule="nonzero" opacity="1" stroke="none"/>
<path d="M43.6466 37.5801C43.987 37.5801 44.2616 37.8563 44.2616 38.1968L44.2616 38.7508C44.2616 39.0928 43.9854 39.369 43.645 39.369C43.3062 39.369 43.03 39.0928 43.03 38.7508L43.03 38.1984C43.03 37.8563 43.3062 37.5801 43.6466 37.5801Z" fill="#3a556a" fill-rule="nonzero" opacity="1" stroke="none"/>
</g>
</g>
</svg>
